<svg xmlns="http://www.w3.org/2000/svg" width="23.723" height="22.94" viewBox="0 0 23.723 22.94"><defs><style>.a{fill:#fff;}</style></defs><g transform="translate(0 0)"><path class="a" d="M3.09,14.33H.5a.5.5,0,0,0-.5.5v7.61a.5.5,0,0,0,.5.5H1.83a1.76,1.76,0,0,0,1.76-1.76V14.83A.5.5,0,0,0,3.09,14.33Zm-.5,6.85a.76.76,0,0,1-.76.76H1V15.33H2.59Z"/><path class="a" d="M23.65,17.65a1.15,1.15,0,0,0-1.4-.72c-.7.18-4.68,1-5.24,1.15l-4.91-.3L12,17c1.11-.09,3.58-.26,4.22-.29A.79.79,0,0,0,17,16a1.64,1.64,0,0,0-1.51-1.38c-.77,0-3.52-.13-4.66-.13-1.71-1.14-4.71-.3-6.15,1.21a.52.52,0,0,0-.14.35v4.72a.51.51,0,0,0,.47.5l6,.35,6.36-.42a.4.4,0,0,0,.15,0s4.89-2,5.56-2.24a1,1,0,0,0,.57-1.31Zm-6.44,2.53L11,20.59l-5.42-.32v-4c1.22-1.15,3.65-1.78,4.83-.88a.47.47,0,0,0,.3.1c1,0,4,.11,4.77.14a.71.71,0,0,1,.38.18c-1.2.06-4.36.3-4.5.31a.52.52,0,0,0-.36.19.5.5,0,0,0-.1.39l.28,1.67a.5.5,0,0,0,.46.42l5.37.33a.32.32,0,0,0,.14,0c.19,0,4.57-1,5.35-1.17a.14.14,0,0,1,.18.08C22.06,18.24,17.83,19.94,17.21,20.18Z"/><path class="a" d="M11.64,8a5.32,5.32,0,1,0,1.569-3.783A5.32,5.32,0,0,0,11.64,8ZM17,3.67a4.33,4.33,0,1,1-3.081,1.257A4.32,4.32,0,0,1,17,3.67Z"/><path class="a" d="M14.73,10.45a.5.5,0,0,0,.33-.12l2.22-2h0l.07-.09.05-.07V8.09a.43.43,0,0,0,0-.11V5.36a.5.5,0,0,0-1,0v2.4l-2,1.82a.5.5,0,0,0,.33.87Z"/><path class="a" d="M6,6.89l1.66.3-1,1.21a.49.49,0,0,0,0,.66l1,.95a.49.49,0,0,0,.35.15.52.52,0,0,0,.29-.09l1.23-.85.2,1.7a.49.49,0,0,0,.49.44H11a.5.5,0,0,0,0-1h-.27L10.61,9.2a.5.5,0,0,0,0-1,2.53,2.53,0,1,1,1.77-4.6.5.5,0,0,0,.7-.13.47.47,0,0,0,.06-.15h0l1.36-.94a.5.5,0,0,0,.57-.81l-.18-.18a.51.51,0,0,0-.64-.06L12.6,2.49l-.06.06h0L12.29.44a.5.5,0,0,0-.5-.44H10.45A.5.5,0,0,0,10,.41L9.61,2.3,8.22,1.2a.49.49,0,0,0-.66,0l-.95,1a.5.5,0,0,0-.06.64L7.62,4.37l-1.55.18a.51.51,0,0,0-.44.5V6.4A.51.51,0,0,0,6,6.89ZM8.15,9l-.34-.34L8.31,8a2.84,2.84,0,0,0,.55.49Zm3.2-8,.14,1.21a3,3,0,0,0-.52,0,3.16,3.16,0,0,0-.32,0L10.87,1ZM8,2.26l.85.67a3.84,3.84,0,0,0-.57.57l-.62-.9ZM7.46,5.4a3,3,0,0,0,0,.31,3,3,0,0,0,0,.42L6.63,6V5.5Z"/><path class="a" d="M10.17,5.8a.89.89,0,0,0,.89.89h0a5.94,5.94,0,0,1,.57-1.54.89.89,0,0,0-1.49.66Z"/></g></svg>