<svg xmlns="http://www.w3.org/2000/svg" width="39.216" height="40.069" viewBox="0 0 39.216 40.069"><defs><style>.a{fill:#cecece;}</style></defs><g transform="translate(9.312 -3.338) rotate(30)"><path class="a" d="M34.531,24.98a1.388,1.388,0,0,0-1.388-1.388,3.469,3.469,0,0,1-3.469-3.469V11.8a9.036,9.036,0,0,0-7.19-8.826,2.081,2.081,0,1,0-3.761,0,9.036,9.036,0,0,0-7.19,8.826v8.327a3.469,3.469,0,0,1-3.469,3.469,1.388,1.388,0,1,0,0,2.776h9.764c0,2.108,1.243,3.817,2.776,3.817s2.776-1.709,2.776-3.817h9.764a1.389,1.389,0,0,0,1.388-1.389"/></g></svg>