<svg xmlns="http://www.w3.org/2000/svg" width="22.937" height="18.256" viewBox="0 0 22.937 18.256"><defs><style>.a{fill:#fff;}</style></defs><g transform="translate(0.017 0.026)"><path class="a" d="M22.42,17.21H20.76v-10a.5.5,0,0,0-1,0v10H14.89V13a.5.5,0,0,0-1,0v4.23H9V7A.5.5,0,0,0,8,7V17.21H3.16V13a.5.5,0,0,0-1,0v4.23H.54a.51.51,0,0,0-.5.5.5.5,0,0,0,.5.5H22.42a.51.51,0,0,0,0-1.02Z"/><path class="a" d="M2.66,11.09A2.67,2.67,0,0,0,5.32,8.43a2.56,2.56,0,0,0-.4-1.37L7.09,4.89a2.65,2.65,0,0,0,1.44.43A2.69,2.69,0,0,0,10,4.85L12.16,7a2.66,2.66,0,1,0,4.89,1.44,2.6,2.6,0,0,0-.46-1.49l2.12-2.13a2.62,2.62,0,0,0,1.55.51A2.66,2.66,0,1,0,17.6,2.66,2.61,2.61,0,0,0,18,4.09L15.88,6.23a2.6,2.6,0,0,0-1.49-.46,2.67,2.67,0,0,0-1.54.5L10.73,4.14a2.59,2.59,0,0,0,.45-1.48A2.66,2.66,0,1,0,6.37,4.2L4.25,6.31a2.66,2.66,0,1,0-1.59,4.78ZM20.26,1A1.66,1.66,0,1,1,18.6,2.66,1.66,1.66,0,0,1,20.26,1ZM14.39,6.77a1.66,1.66,0,1,1-1.66,1.66,1.66,1.66,0,0,1,1.66-1.66ZM8.53,1a1.65,1.65,0,1,1-1.177.483A1.66,1.66,0,0,1,8.53,1ZM2.66,6.77A1.66,1.66,0,1,1,1,8.43,1.66,1.66,0,0,1,2.66,6.77Z"/></g></svg>