<svg xmlns="http://www.w3.org/2000/svg" width="22.6" height="22.57" viewBox="0 0 22.6 22.57"><defs><style>.a{fill:#fff;}</style></defs><g transform="translate(0.02 0.02)"><path class="a" d="M20.35,8.17a5.52,5.52,0,0,0-5.48-4.94,5.46,5.46,0,0,0-3.75,1.49A4.848,4.848,0,1,0,2.46,9.05a4.28,4.28,0,0,0-1.1,2.86A4.35,4.35,0,0,0,5.7,16.25h5.12a.5.5,0,0,0,0-1H5.7a3.34,3.34,0,0,1,0-6.67.48.48,0,0,0,.45-.3,3.33,3.33,0,0,1,4.36-1.77.51.51,0,0,0,.61-.19,4.51,4.51,0,0,1,8.31,2.19.49.49,0,0,0,.27.42,3.31,3.31,0,0,1,1.88,3,3.35,3.35,0,0,1-3.34,3.34h-.75a.5.5,0,0,0,0,1h.75a4.35,4.35,0,0,0,4.34-4.34A4.29,4.29,0,0,0,20.35,8.17Zm-15-.58a4.33,4.33,0,0,0-2.12.8,4,4,0,0,1-.4-1.72A3.89,3.89,0,0,1,6.69,2.78a3.85,3.85,0,0,1,3.67,2.65,4.28,4.28,0,0,0-1.19-.18A4.33,4.33,0,0,0,5.32,7.59Z"/><path class="a" d="M14.39,13.74a.48.48,0,0,0-.57,0,3.83,3.83,0,0,0-1.57,2.7,1.86,1.86,0,1,0,3.71,0,3.88,3.88,0,0,0-1.57-2.7Zm-.29,3.58a.89.89,0,0,1-.88-.89,2.5,2.5,0,0,1,.88-1.66,2.58,2.58,0,0,1,.9,1.66.89.89,0,0,1-.9.89Z"/><path class="a" d="M11.56,18A.48.48,0,0,0,11,18a3.83,3.83,0,0,0-1.57,2.7,1.85,1.85,0,1,0,3.7,0A3.94,3.94,0,0,0,11.56,18Zm-.29,3.58a.87.87,0,0,1-.88-.88,2.52,2.52,0,0,1,.88-1.7,2.65,2.65,0,0,1,.89,1.67.88.88,0,0,1-.89.89Z"/><path class="a" d="M17.63,17.11a.48.48,0,0,0-.57,0,3.83,3.83,0,0,0-1.57,2.7,1.85,1.85,0,1,0,3.7,0,3.88,3.88,0,0,0-1.56-2.7Zm-.29,3.58a.88.88,0,0,1-.88-.89,2.5,2.5,0,0,1,.88-1.66,2.62,2.62,0,0,1,.89,1.66.89.89,0,0,1-.89.89Z"/><path class="a" d="M1,6.08H.48a.5.5,0,0,0,0,1H1a.5.5,0,1,0,0-1Z"/><path class="a" d="M2.28,3a.48.48,0,0,0,.34.14A.486.486,0,0,0,3,2.31L2.6,1.9a.49.49,0,0,0-.69.69Z"/><path class="a" d="M6.62,1.48A.48.48,0,0,0,7.1,1V.48a.5.5,0,1,0-1,0V1a.48.48,0,0,0,.52.48Z"/><path class="a" d="M10.57,3.11A.45.45,0,0,0,10.91,3l.36-.36a.481.481,0,1,0-.68-.68l-.36.36a.48.48,0,0,0,0,.68A.44.44,0,0,0,10.57,3.11Z"/></g></svg>