<svg xmlns="http://www.w3.org/2000/svg" width="22.937" height="18.256" viewBox="0 0 22.937 18.256"><defs><style>.a{fill:#fff;}</style></defs><title>Log Out</title><g id="Layer_2" data-name="Layer 2"><g id="Layer_1-2" data-name="Layer 1"><path class="a" d="M0,2.86V14.29a2.87,2.87,0,0,0,2.86,2.86H12.1A2.87,2.87,0,0,0,15,14.29V12.44a.57.57,0,1,0-1.14,0v1.85A1.74,1.74,0,0,1,12.09,16H2.86a1.74,1.74,0,0,1-1.73-1.73V2.86A1.74,1.74,0,0,1,2.86,1.13H12.1a1.74,1.74,0,0,1,1.73,1.73V4.71a.57.57,0,1,0,1.13,0V2.86A2.86,2.86,0,0,0,12.1,0H2.86A2.86,2.86,0,0,0,0,2.86Z"/><path class="a" d="M17.75,12.83a.56.56,0,0,0,.4.17.58.58,0,0,0,.4-.17L22.41,9a.57.57,0,0,0,0-.8L18.55,4.31a.57.57,0,1,0-.8.8L20.65,8H10.07a.57.57,0,1,0,0,1.13H20.65L17.75,12A.54.54,0,0,0,17.75,12.83Z"/></g></g></svg>
