<svg xmlns="http://www.w3.org/2000/svg" width="22.109" height="16.765" viewBox="0 0 22.109 16.765"><defs><style>.a{fill:#fff;}</style></defs><g transform="translate(0.109 0.005)"><path class="a" d="M5.82,1.79H21.37A.59.59,0,0,0,22,1.2a.6.6,0,0,0-.6-.6H5.82a.6.6,0,0,0-.6.6.59.59,0,0,0,.6.59Z"/><path class="a" d="M21.37,5.38H5.82a.6.6,0,0,0,0,1.2H21.37a.6.6,0,1,0,0-1.2Z"/><path class="a" d="M21.37,10.17H5.82a.6.6,0,0,0-.6.6.59.59,0,0,0,.6.59H21.37a.59.59,0,0,0,.6-.59.6.6,0,0,0-.6-.6Z"/><path class="a" d="M21.37,15H5.82a.6.6,0,1,0,0,1.2H21.37a.6.6,0,1,0,0-1.2Z"/><path class="a" d="M1.2,0A1.2,1.2,0,1,0,2.291,1.195,1.2,1.2,0,0,0,1.2,0Z"/><path class="a" d="M1.2,4.79a1.19,1.19,0,1,0,.849.356A1.2,1.2,0,0,0,1.2,4.79Z"/><path class="a" d="M1.2,9.57A1.215,1.215,0,1,0,1.2,12a1.2,1.2,0,0,0,0-2.39Z"/><path class="a" d="M1.2,14.36a1.2,1.2,0,1,0,1.19,1.19A1.2,1.2,0,0,0,1.2,14.36Z"/></g></svg>