<svg xmlns="http://www.w3.org/2000/svg" width="24.001" height="16.158" viewBox="0 0 24.001 16.158"><defs><style>.a{fill:#fff;}</style></defs><g transform="translate(-0.05 0.001)"><path class="a" d="M4,4a.49.49,0,0,0-.37-.24.54.54,0,0,0-.42.16,11.93,11.93,0,0,0-3.13,7,8.8,8.8,0,0,0,1,4.85.51.51,0,0,0,.45.27.44.44,0,0,0,.16,0,.51.51,0,0,0,.33-.56,10.2,10.2,0,0,1,.29-4.77,9.28,9.28,0,0,1,.92-2.09A11.15,11.15,0,0,1,4.49,6.87c.18-.17.32-.31.49-.45a.48.48,0,0,0,.11-.65ZM3.78,6.18a11.89,11.89,0,0,0-1.5,1.93,10.1,10.1,0,0,0-1,2.31,9.63,9.63,0,0,0-.25,1L1,11A10.74,10.74,0,0,1,3.44,5L4,5.94Z"/><path class="a" d="M11.9,4.39A7.39,7.39,0,0,1,15,5.68a.5.5,0,0,0,.29.09.48.48,0,0,0,.23,0c1-.53,2.65-1.41,4-2.19a.48.48,0,0,0,.25-.39.49.49,0,0,0-.18-.43,8.77,8.77,0,0,0-1.19-.85A12.31,12.31,0,0,0,13.16.06,11.77,11.77,0,0,0,5.4,2a.49.49,0,0,0-.15.67L6.57,4.83a.5.5,0,0,0,.6.21l.32-.13a3.65,3.65,0,0,1,.56-.2A8.64,8.64,0,0,1,10,4.32a8.8,8.8,0,0,1,1.9.07ZM7.77,3.75A3.23,3.23,0,0,0,7.2,4L6.36,2.59a10.82,10.82,0,0,1,6.7-1.54,11.44,11.44,0,0,1,4.86,1.66l.49.32c-1.07.61-2.21,1.23-3.06,1.66A8.48,8.48,0,0,0,12.07,3.4a8.19,8.19,0,0,0-1.36-.1h-.8a9.82,9.82,0,0,0-2.14.45Z"/><path class="a" d="M22.84,6.81a.47.47,0,0,0-.37-.27.5.5,0,0,0-.44.15l-1.5,1.59c-1,1-2,2.1-2.74,2.88a.52.52,0,0,0-.14.3,6,6,0,0,1-.22,1.09,4.58,4.58,0,0,1-.51,1.14.52.52,0,0,0,0,.44.53.53,0,0,0,.32.3l5.47,1.72h.11a.47.47,0,0,0,.16,0,.49.49,0,0,0,.47-.32,10.75,10.75,0,0,0,.55-2.7A11.86,11.86,0,0,0,22.84,6.81ZM23,13h0a9.69,9.69,0,0,1-.39,2l-4.54-1.43a4.55,4.55,0,0,0,.31-.83,5.82,5.82,0,0,0,.23-1.08A31.669,31.669,0,0,0,21.26,9l1-1.05A10.9,10.9,0,0,1,23,13Z"/><path class="a" d="M21.36,5.39a.64.64,0,0,0,0-.71A.65.65,0,0,0,21,4.4a.75.75,0,0,0-.62,0L10.3,10a3.57,3.57,0,0,0-.64.51A2.52,2.52,0,0,0,9,12.29,2.6,2.6,0,0,0,9.57,14a2.36,2.36,0,0,0,1.29.81,2.46,2.46,0,0,0,.72.11h.14a2.59,2.59,0,0,0,1.8-.86l7.76-8.51a.42.42,0,0,0,.08-.16Zm-8.88,8.14a1.4,1.4,0,0,1-1.09.32h-.23a1.66,1.66,0,0,1-.6-.35A1.6,1.6,0,0,1,10,12.36v-.17a1.52,1.52,0,0,1,3,.29,1.46,1.46,0,0,1-.52,1.05ZM14,12a2.47,2.47,0,0,0-1.55-2l6.88-3.81Z"/></g></svg>